<?xml version="1.0" encoding="UTF-8"?>
<svg width="1024" height="1024" viewBox="0 0 1024 1024" xmlns="http://www.w3.org/2000/svg">
  <rect width="100%" height="100%" fill="white"/>
  <!-- Mountains -->
  <path d="M0 600 L300 200 L600 600 L1024 600 Z" fill="none" stroke="black" stroke-width="2"/>
  <path d="M400 600 L700 300 L1000 600 Z" fill="none" stroke="black" stroke-width="2"/>
  <!-- Sun -->
  <circle cx="100" cy="100" r="50" fill="none" stroke="black" stroke-width="2"/>
  <!-- Trees -->
  <path d="M200 600 L200 500 L150 500 L200 450 L150 450 L200 400 L150 400 L200 350 L250 400 L200 400 L250 450 L200 450 L250 500 L200 500 Z" fill="none" stroke="black" stroke-width="2"/>
  <path d="M800 600 L800 500 L750 500 L800 450 L750 450 L800 400 L750 400 L800 350 L850 400 L800 400 L850 450 L800 450 L850 500 L800 500 Z" fill="none" stroke="black" stroke-width="2"/>
</svg> 